<svg width="64" height="64" viewBox="0 0 64 64" fill="none" xmlns="http://www.w3.org/2000/svg">
<mask id="mask0_37414_6301" style="mask-type:luminance" maskUnits="userSpaceOnUse" x="2" y="2" width="60" height="60">
<path d="M31.9997 58.6664C35.5022 58.6707 38.9711 57.9829 42.207 56.6425C45.443 55.3021 48.3821 53.3355 50.8557 50.8557C53.3355 48.3821 55.3021 45.443 56.6425 42.207C57.9829 38.9711 58.6707 35.5022 58.6664 31.9997C58.6707 28.4971 57.9829 25.0283 56.6425 21.7923C55.3021 18.5564 53.3355 15.6173 50.8557 13.1437C48.3821 10.6639 45.443 8.69732 42.207 7.35691C38.9711 6.01651 35.5022 5.32871 31.9997 5.33303C28.4971 5.32871 25.0283 6.01651 21.7923 7.35691C18.5564 8.69732 15.6173 10.6639 13.1437 13.1437C10.6639 15.6173 8.69732 18.5564 7.35691 21.7923C6.01651 25.0283 5.32871 28.4971 5.33303 31.9997C5.32871 35.5022 6.01651 38.9711 7.35691 42.207C8.69732 45.443 10.6639 48.3821 13.1437 50.8557C15.6173 53.3355 18.5564 55.3021 21.7923 56.6425C25.0283 57.9829 28.4971 58.6707 31.9997 58.6664Z" fill="white" stroke="white" stroke-width="5.33333" stroke-linejoin="round"/>
<path d="M21.333 32L29.333 40L45.333 24" stroke="black" stroke-width="5.33333" stroke-linecap="round" stroke-linejoin="round"/>
</mask>
<g mask="url(#mask0_37414_6301)">
<path d="M0 0H64V64H0V0Z" fill="#44AB09"/>
</g>
</svg>
