<svg width="149" height="42" viewBox="0 0 149 42" fill="none" xmlns="http://www.w3.org/2000/svg">
<g clip-path="url(#clip0_42022_1468)">
<mask id="mask0_42022_1468" style="mask-type:luminance" maskUnits="userSpaceOnUse" x="0" y="0" width="42" height="42">
<path d="M42 0H0V42H42V0Z" fill="white"/>
</mask>
<g mask="url(#mask0_42022_1468)">
<path fill-rule="evenodd" clip-rule="evenodd" d="M22.5 0H19.5V13.2832L14.524 0.967222L11.7425 2.09104L16.8474 14.726L7.21142 5.09009L5.09011 7.21142L14.3257 16.447L2.35706 11.2178L1.15596 13.9669L13.8202 19.5H0V22.5H13.8202L1.15597 28.0331L2.35706 30.7822L14.3257 25.553L5.09011 34.7886L7.21142 36.9098L16.8474 27.274L11.7425 39.909L14.524 41.0327L19.5 28.7169V42H22.5V28.7169L27.476 41.0327L30.2574 39.909L25.1528 27.274L34.7886 36.9098L36.9098 34.7886L27.6742 25.553L39.643 30.7822L40.8439 28.0331L28.1799 22.5H42V19.5H28.1797L40.8439 13.9669L39.643 11.2178L27.6742 16.447L36.9098 7.2114L34.7886 5.09009L25.1528 14.726L30.2574 2.09104L27.476 0.967222L22.5 13.2832V0Z" fill="#C12116"/>
</g>
</g>
<path d="M61.8 32.288C60.9893 32.288 60.36 32.064 59.912 31.616C59.4853 31.168 59.272 30.5173 59.272 29.664V12.032C59.272 11.2 59.496 10.56 59.944 10.112C60.392 9.664 61.032 9.44 61.864 9.44H72.808C73.448 9.44 73.928 9.61067 74.248 9.952C74.5893 10.272 74.76 10.7413 74.76 11.36C74.76 12 74.5893 12.4907 74.248 12.832C73.928 13.152 73.448 13.312 72.808 13.312H64.232V18.816H72.104C72.744 18.816 73.2347 18.9867 73.576 19.328C73.9173 19.648 74.088 20.1173 74.088 20.736C74.088 21.3547 73.9173 21.8347 73.576 22.176C73.2347 22.5173 72.744 22.688 72.104 22.688H64.232V29.664C64.232 31.4133 63.4213 32.288 61.8 32.288ZM84.1267 32.352C82.4414 32.352 80.9694 32.0213 79.7108 31.36C78.4734 30.6987 77.5134 29.7493 76.8307 28.512C76.1481 27.2747 75.8068 25.8133 75.8068 24.128C75.8068 22.8693 75.9988 21.7387 76.3828 20.736C76.7668 19.7333 77.3214 18.88 78.0468 18.176C78.7934 17.4507 79.6788 16.9067 80.7028 16.544C81.7268 16.16 82.8681 15.968 84.1267 15.968C85.8121 15.968 87.2734 16.2987 88.5108 16.96C89.7694 17.6213 90.7401 18.56 91.4228 19.776C92.1268 20.992 92.4788 22.4427 92.4788 24.128C92.4788 25.408 92.2761 26.5493 91.8708 27.552C91.4868 28.5547 90.9321 29.4187 90.2068 30.144C89.4814 30.8693 88.5961 31.424 87.5508 31.808C86.5268 32.1707 85.3854 32.352 84.1267 32.352ZM84.1267 28.736C84.8308 28.736 85.4388 28.5653 85.9508 28.224C86.4628 27.8827 86.8681 27.3813 87.1668 26.72C87.4654 26.0373 87.6148 25.1733 87.6148 24.128C87.6148 22.5707 87.2948 21.4293 86.6548 20.704C86.0148 19.9573 85.1721 19.584 84.1267 19.584C83.4441 19.584 82.8361 19.744 82.3028 20.064C81.7908 20.384 81.3854 20.8853 81.0868 21.568C80.8094 22.2293 80.6708 23.0827 80.6708 24.128C80.6708 25.6853 80.9908 26.848 81.6308 27.616C82.2708 28.3627 83.1028 28.736 84.1267 28.736ZM102.97 32.352C101.285 32.352 99.8132 32.0213 98.5545 31.36C97.3172 30.6987 96.3572 29.7493 95.6745 28.512C94.9918 27.2747 94.6505 25.8133 94.6505 24.128C94.6505 22.8693 94.8425 21.7387 95.2265 20.736C95.6105 19.7333 96.1652 18.88 96.8905 18.176C97.6372 17.4507 98.5225 16.9067 99.5465 16.544C100.571 16.16 101.712 15.968 102.97 15.968C104.656 15.968 106.117 16.2987 107.355 16.96C108.613 17.6213 109.584 18.56 110.267 19.776C110.971 20.992 111.323 22.4427 111.323 24.128C111.323 25.408 111.12 26.5493 110.715 27.552C110.331 28.5547 109.776 29.4187 109.051 30.144C108.325 30.8693 107.44 31.424 106.395 31.808C105.371 32.1707 104.229 32.352 102.97 32.352ZM102.97 28.736C103.675 28.736 104.283 28.5653 104.795 28.224C105.307 27.8827 105.712 27.3813 106.011 26.72C106.309 26.0373 106.459 25.1733 106.459 24.128C106.459 22.5707 106.139 21.4293 105.499 20.704C104.859 19.9573 104.016 19.584 102.97 19.584C102.288 19.584 101.68 19.744 101.147 20.064C100.635 20.384 100.229 20.8853 99.9305 21.568C99.6532 22.2293 99.5145 23.0827 99.5145 24.128C99.5145 25.6853 99.8345 26.848 100.475 27.616C101.115 28.3627 101.947 28.736 102.97 28.736ZM120.374 32.352C119.009 32.352 117.804 32.0213 116.758 31.36C115.734 30.6987 114.934 29.7493 114.358 28.512C113.782 27.2747 113.494 25.8133 113.494 24.128C113.494 22.4427 113.782 20.992 114.358 19.776C114.934 18.56 115.734 17.6213 116.758 16.96C117.804 16.2987 119.009 15.968 120.374 15.968C121.612 15.968 122.7 16.2667 123.638 16.864C124.598 17.4613 125.249 18.24 125.59 19.2H125.238V11.616C125.238 10.8053 125.441 10.1973 125.846 9.792C126.252 9.36533 126.849 9.152 127.638 9.152C128.406 9.152 129.004 9.36533 129.43 9.792C129.857 10.1973 130.07 10.8053 130.07 11.616V29.824C130.07 30.6133 129.857 31.2213 129.43 31.648C129.025 32.0747 128.438 32.288 127.67 32.288C126.902 32.288 126.305 32.0747 125.878 31.648C125.473 31.2213 125.27 30.6133 125.27 29.824V27.648L125.622 28.896C125.324 29.9413 124.684 30.784 123.702 31.424C122.742 32.0427 121.633 32.352 120.374 32.352ZM121.814 28.736C122.518 28.736 123.126 28.5653 123.638 28.224C124.15 27.8827 124.556 27.3813 124.854 26.72C125.153 26.0373 125.302 25.1733 125.302 24.128C125.302 22.5707 124.982 21.4293 124.342 20.704C123.702 19.9573 122.86 19.584 121.814 19.584C121.132 19.584 120.524 19.744 119.99 20.064C119.478 20.384 119.073 20.8853 118.774 21.568C118.497 22.2293 118.358 23.0827 118.358 24.128C118.358 25.6853 118.678 26.848 119.318 27.616C119.958 28.3627 120.79 28.736 121.814 28.736ZM138.082 38.048C137.527 38.048 137.068 37.8987 136.706 37.6C136.343 37.3013 136.13 36.9067 136.066 36.416C136.002 35.9467 136.087 35.4453 136.322 34.912L138.466 30.176V32.16L132.802 19.168C132.588 18.6133 132.514 18.1013 132.578 17.632C132.663 17.1413 132.898 16.7573 133.282 16.48C133.687 16.1813 134.242 16.032 134.946 16.032C135.522 16.032 135.98 16.1707 136.322 16.448C136.684 16.704 137.015 17.2053 137.314 17.952L141.09 27.552H140.066L143.97 17.92C144.268 17.1947 144.599 16.704 144.962 16.448C145.346 16.1707 145.858 16.032 146.498 16.032C147.052 16.032 147.49 16.1813 147.81 16.48C148.151 16.7573 148.354 17.1307 148.418 17.6C148.503 18.0693 148.418 18.5813 148.162 19.136L140.642 36.192C140.322 36.9173 139.959 37.408 139.554 37.664C139.17 37.92 138.679 38.048 138.082 38.048Z" fill="#0A0D12"/>
<defs>
<clipPath id="clip0_42022_1468">
<rect width="42" height="42" fill="white"/>
</clipPath>
</defs>
</svg>
